<svg id="visual" viewBox="0 0 1920 1080" width="1920" height="1080" xmlns="http://www.w3.org/2000/svg" xmlns:xlink="http://www.w3.org/1999/xlink" version="1.1"><rect x="0" y="0" width="1920" height="1080" fill="#2a303c"></rect><defs><linearGradient id="grad1_0" x1="43.8%" y1="0%" x2="100%" y2="100%"><stop offset="14.444444444444446%" stop-color="#2a303c" stop-opacity="1"></stop><stop offset="85.55555555555554%" stop-color="#2a303c" stop-opacity="1"></stop></linearGradient></defs><defs><linearGradient id="grad2_0" x1="0%" y1="0%" x2="56.3%" y2="100%"><stop offset="14.444444444444446%" stop-color="#2a303c" stop-opacity="1"></stop><stop offset="85.55555555555554%" stop-color="#2a303c" stop-opacity="1"></stop></linearGradient></defs><g transform="translate(1920, 0)"><path d="M0 540C-77.5 540.2 -154.9 540.4 -206.6 498.9C-258.4 457.4 -284.4 374.1 -315.4 315.4C-346.3 256.7 -382.1 222.6 -420.4 174.1C-458.6 125.7 -499.3 62.8 -540 0L0 0Z" fill="#641ae6"></path></g><g transform="translate(0, 1080)"><path d="M0 -540C59.9 -497 119.8 -453.9 174.9 -422.2C230 -390.5 280.2 -370.1 338.7 -338.7C397.2 -307.3 464 -264.9 498.9 -206.6C533.8 -148.4 536.9 -74.2 540 0L0 0Z" fill="#641ae6"></path></g></svg>